<svg width="50" height="42" viewBox="0 0 50 42" fill="none" xmlns="http://www.w3.org/2000/svg">
<path d="M24.8966 14.5787C24.1501 17.398 22.5404 19.0021 19.6608 19.7245V16.0236C19.6608 15.2253 20.3157 14.5787 21.1243 14.5787H24.8966Z" fill="white"/>
<path d="M30.1289 19.6954C27.2531 19.0217 25.6558 17.3745 24.8966 14.5784H28.6654C29.474 14.5784 30.1289 15.225 30.1289 16.0233V19.6954Z" fill="white"/>
<path d="M24.9388 24.9138H21.1245C20.3159 24.9138 19.661 24.2672 19.661 23.4689V19.7355C22.5368 20.4544 24.1431 22.1234 24.9388 24.9138Z" fill="white"/>
<path d="M30.1289 19.7082V23.4686C30.1289 24.267 29.474 24.9135 28.6654 24.9135H24.9388C25.6449 21.9931 27.3755 20.4866 30.1289 19.7082Z" fill="white"/>
<path d="M0.0545967 37.0423C0.087717 36.5766 0.186819 36.1229 0.31516 35.6751C0.485937 35.0791 0.72787 34.5124 1.03837 33.9742C1.06425 33.9292 1.08443 33.8804 1.1235 33.8436C1.19285 33.7935 1.27177 33.805 1.34706 33.8155C2.99946 34.0493 4.58043 34.506 6.04083 35.3194C6.63803 35.6521 7.19461 36.0437 7.71004 36.4959C8.52149 37.2078 9.16682 38.0445 9.66336 38.991C10.1322 39.8846 10.4319 40.8396 10.6378 41.8236C10.6482 41.8737 10.6668 41.9268 10.6231 41.9731C10.606 41.9777 10.5892 41.9794 10.5716 41.9784C7.10456 41.9784 3.6378 41.9784 0.171035 41.9777C0.11411 41.9777 0.055373 41.9917 0.000258752 41.9646V37.3338C0.0473517 37.2421 0.0341553 37.1391 0.0548555 37.0426L0.0545967 37.0423Z" fill="#EA5922"/>
<path d="M50 4.51664C49.9917 4.51792 49.9834 4.51843 49.9752 4.51843C49.9169 4.46733 49.9244 4.39759 49.9244 4.33245C49.9239 3.04388 49.9208 1.75505 49.925 0.466481C49.9301 0.386009 49.9198 0.305282 49.9247 0.22481C49.9317 0.113938 49.8776 0.0738297 49.7697 0.0743406C49.1591 0.0768953 48.5484 0.0720414 47.9375 0.0743406C47.2189 0.0776617 46.5006 0.0758734 45.7821 0.0758734C42.0501 0.0758734 38.3179 0.0758734 34.5859 0.0761289C34.5134 0.0761289 34.4412 0.0748515 34.369 0.071275C34.2099 0.0812382 34.0508 0.0753625 33.8919 0.0753625C32.4933 0.0758734 31.0948 0.0758734 29.6962 0.0753625C29.6103 0.0753625 29.5221 0.0876248 29.4398 0.0485385C29.4225 0.037298 29.4142 0.0212037 29.415 0.000510932H49.9997V4.51664H50Z" fill="#FFEDCC"/>
<path d="M29.4152 0C29.4152 0.00791944 29.4147 0.0155834 29.4142 0.0235029C29.4077 0.0304004 29.401 0.0375535 29.3945 0.0447065C29.3135 0.0881358 29.2248 0.0748515 29.1391 0.0748515C27.6772 0.0740851 26.2155 0.078939 24.7535 0.0733187C24.657 0.0802163 24.5605 0.0756179 24.4643 0.0756179C21.381 0.0758734 18.2977 0.0761289 15.2146 0.0745961C15.1212 0.0745961 15.0198 0.0996317 14.9383 0.0258021C14.9388 0.0171162 14.9393 0.00868584 14.9396 0H29.4155H29.4152Z" fill="#FDE0C4"/>
<path d="M34.974 41.993H21.5114C21.5039 41.9723 21.5096 41.9565 21.5287 41.9452C21.5962 41.911 21.6697 41.9179 21.7414 41.9179C26.0755 41.9174 30.4099 41.9174 34.744 41.9179C34.8159 41.9179 34.8891 41.911 34.9569 41.945C34.9758 41.9562 34.9815 41.9723 34.974 41.993Z" fill="#F49E67"/>
<path d="M0 41.9644C3.47944 41.9644 6.95888 41.9644 10.4386 41.9644C10.5012 41.9644 10.5638 41.9659 10.6264 41.9667C10.6337 41.9728 10.6358 41.9787 10.6332 41.9843C10.6306 41.9899 10.628 41.9927 10.6254 41.9927C7.12707 41.9927 3.62874 41.9927 0.130411 41.9909C0.0879758 41.9909 0.032344 42.0239 0 41.9641V41.9644Z" fill="#F08255"/>
<path d="M21.5116 41.9662C21.5116 41.9751 21.5114 41.984 21.5114 41.993H14.5051C14.5036 41.9835 14.502 41.9743 14.5002 41.9649C14.5134 41.9503 14.5292 41.9398 14.5476 41.9332C14.6182 41.9125 14.6909 41.9179 14.7629 41.9179C16.925 41.9174 19.0871 41.9176 21.2493 41.9179C21.3214 41.9179 21.3939 41.9153 21.4648 41.934C21.4834 41.9404 21.4992 41.9513 21.5119 41.9662H21.5116Z" fill="#F39562"/>
<path d="M14.5059 41.9667C14.5054 41.9754 14.5051 41.984 14.5049 41.993H10.6254C10.6254 41.9843 10.6257 41.9756 10.6264 41.9667L10.6244 41.9621C10.681 41.9151 10.7499 41.9181 10.8171 41.9179C11.9836 41.9171 13.1501 41.9169 14.3165 41.9181C14.3827 41.9181 14.4534 41.911 14.5062 41.9664L14.5059 41.9667Z" fill="#F18B5B"/>
<path d="M0.0545967 37.0423C0.0548555 37.1427 0.0892695 37.2492 0 37.3335V37.1907C0.0414004 37.1496 0.0175952 37.0852 0.0545967 37.0426V37.0423Z" fill="#EF7749"/>
<path d="M34.974 41.993C34.9743 41.9843 34.975 41.9759 34.9763 41.9674C35.0257 41.9179 35.0811 41.9243 35.1386 41.9506C35.1541 41.9621 35.1572 41.9764 35.1479 41.9932H34.9743L34.974 41.993Z" fill="#F9BE9A"/>
<path d="M35.1476 41.993C35.1484 41.9851 35.1492 41.9774 35.1499 41.9695C35.2066 41.9161 35.2641 41.9174 35.322 41.9674C35.3218 41.9761 35.3215 41.9846 35.3212 41.9932H35.1476V41.993Z" fill="#FDE6D9"/>
<path d="M35.322 41.9672C35.2646 41.9679 35.2074 41.9687 35.1499 41.9692C35.092 41.9685 35.034 41.9677 34.9761 41.9672C34.87 41.9662 34.7641 41.9644 34.6581 41.9644C30.3384 41.9644 26.0191 41.9644 21.6995 41.9644C21.6369 41.9644 21.5742 41.9654 21.5116 41.9662C21.5015 41.9649 21.4914 41.9639 21.4814 41.9626C21.2674 41.8466 21.1408 41.6415 20.9835 41.4713C20.4929 40.9394 20.0528 40.3669 19.6535 39.7651C18.714 38.3488 18.0498 36.8172 17.6968 35.1588C17.6335 34.8611 17.5654 34.5633 17.5343 34.2598C17.5294 34.2125 17.4968 34.1555 17.561 34.119C19.8336 34.1172 22.106 34.1195 24.3786 34.1159C24.4989 34.1159 24.5776 34.1673 24.6534 34.2455C25.1823 34.7894 25.7536 35.2857 26.3604 35.7435C27.0748 36.2823 27.8234 36.7682 28.6123 37.1941C29.5676 37.7098 30.5602 38.139 31.596 38.4696C32.8577 38.8725 34.1465 39.1512 35.4643 39.2986C36.1829 39.3791 36.904 39.4143 37.6265 39.447C38.1585 39.471 38.6861 39.4299 39.2157 39.4291C39.5702 39.4286 39.9276 39.4 40.2823 39.3601C40.3889 39.3481 40.503 39.3195 40.6024 39.3949C40.5949 39.4038 40.5874 39.4128 40.5799 39.4217C40.5775 39.4324 40.5708 39.4391 40.5602 39.4414C40.3038 39.7408 40.0083 39.9998 39.7004 40.2446C38.6353 41.0917 37.4275 41.6325 36.0812 41.8686C35.8302 41.9125 35.5751 41.935 35.322 41.9674V41.9672Z" fill="#EF7B35"/>
<path d="M40.6024 39.3946C40.3421 39.3811 40.0851 39.4148 39.8279 39.4452C39.8137 39.447 39.799 39.4488 39.7847 39.4483C39.4667 39.4378 39.151 39.4986 38.833 39.4772C38.5919 39.4608 38.3543 39.5185 38.1129 39.507C37.7429 39.4894 37.3726 39.4805 37.0021 39.4715C36.725 39.4649 36.4468 39.4404 36.1699 39.4171C35.817 39.3875 35.4638 39.354 35.114 39.3017C34.5463 39.2166 33.9788 39.1287 33.4181 39.0005C32.9128 38.8847 32.4116 38.7567 31.9142 38.6109C31.3835 38.4553 30.8637 38.2691 30.3514 38.0639C29.8021 37.8442 29.2688 37.5877 28.7445 37.3151C28.1013 36.9805 27.4873 36.5968 26.8924 36.185C26.5705 35.9622 26.253 35.7315 25.9549 35.4768C25.7518 35.3031 25.543 35.1363 25.3406 34.9608C25.0684 34.7245 24.8242 34.4616 24.5641 34.2143C24.5095 34.1624 24.4567 34.1308 24.3755 34.1308C22.1125 34.1331 19.8497 34.1331 17.5866 34.1333C17.5721 34.1333 17.5576 34.1348 17.5431 34.1356C17.5002 34.1732 17.4469 34.177 17.3936 34.177C16.1516 34.177 14.9093 34.1834 13.6673 34.1742C13.2093 34.1836 12.7513 34.1775 12.2933 34.178C11.3049 34.179 10.3162 34.1788 9.32776 34.178C9.24651 34.178 9.16319 34.1885 9.08505 34.154C9.06642 34.144 9.0584 34.1285 9.06151 34.1075C11.8886 34.108 14.7158 34.1083 17.5429 34.1088C17.5719 34.1088 17.6008 34.1093 17.6298 34.1093C22.9273 34.1098 28.2244 34.1093 33.5219 34.1121C33.8456 34.1121 34.1305 34.0263 34.3734 33.8155C34.6086 33.6114 34.7315 33.348 34.7745 33.045C34.7968 32.9947 34.7856 32.9418 34.7859 32.8902C34.789 32.2015 34.782 31.5127 34.7898 30.824C34.8495 30.7622 34.916 30.7967 34.9784 30.8153C36.1164 31.1574 37.2769 31.395 38.4576 31.5324C38.9935 31.5948 39.5311 31.6346 40.0704 31.6642C40.6878 31.6982 41.3044 31.6729 41.921 31.6872C42.1096 31.6916 42.2949 31.6464 42.4838 31.6581C42.6499 31.6683 42.6602 31.6755 42.6605 31.842C42.6605 32.6468 42.6605 33.4515 42.66 34.2562C42.66 34.3032 42.669 34.3515 42.6496 34.3975C42.6618 34.6892 42.6245 34.9776 42.5821 35.2645C42.4468 36.1819 42.1564 37.05 41.7085 37.8657C41.4154 38.3993 41.0655 38.8942 40.6544 39.3464C40.6386 39.3637 40.6197 39.3788 40.6024 39.3951V39.3946Z" fill="#F1883B"/>
<path d="M49.9674 0.456773C49.9687 0.651438 49.9708 0.846359 49.9708 1.04102C49.9708 2.16226 49.9705 3.28325 49.9705 4.40449C49.9705 4.4423 49.9736 4.48036 49.9752 4.51817C49.9296 5.91455 49.5019 7.1929 48.7557 8.37315C48.7407 8.39691 48.7205 8.4176 48.7026 8.43957C48.2125 8.40815 47.724 8.35936 47.2376 8.29243C45.9347 8.11309 44.6578 7.82543 43.4155 7.39497C42.1086 6.94229 40.8712 6.34884 39.7055 5.60876C38.9249 5.11315 38.189 4.56083 37.4961 3.95231C36.9514 3.47408 36.4484 2.956 35.9769 2.40649C35.3859 1.7175 34.864 0.982011 34.4078 0.200285C34.3783 0.149703 34.3235 0.102186 34.3654 0.0324442C34.4231 0.0309114 34.4811 0.0283567 34.5388 0.0283567C38.9451 0.0283567 43.3514 0.0283567 47.7577 0.0283567C47.8203 0.0283567 47.8829 0.0306559 47.9455 0.0319332C48.5898 0.126711 49.2178 0.306304 49.8642 0.391118C49.9087 0.396994 49.9482 0.4113 49.9677 0.456262L49.9674 0.456773Z" fill="#FCC761"/>
<path d="M34.3654 0.0329551C34.4337 0.201052 34.5354 0.35101 34.6304 0.50429C34.9417 1.00628 35.2804 1.48988 35.6468 1.9538C35.8147 2.16661 35.9932 2.37149 36.1733 2.57484C36.4616 2.90082 36.7589 3.21785 37.0756 3.51649C37.3325 3.75867 37.5996 3.99012 37.8684 4.21979C38.2865 4.57693 38.7298 4.9006 39.1782 5.21815C39.5218 5.46161 39.883 5.67901 40.2427 5.8982C40.4062 5.99783 40.577 6.08571 40.7447 6.17896C41.0177 6.3307 41.2958 6.47249 41.5792 6.60431C42.0967 6.84495 42.6206 7.07053 43.1588 7.26443C43.8231 7.5038 44.4976 7.70843 45.1846 7.87091C45.6967 7.992 46.2119 8.10134 46.7335 8.17747C47.0456 8.22294 47.3563 8.28195 47.6702 8.31235C47.9178 8.33636 48.1644 8.37494 48.4146 8.37801C48.5124 8.37928 48.6133 8.38874 48.7024 8.44008C48.5577 8.69427 48.375 8.92164 48.1887 9.14594C47.5866 9.87095 46.8753 10.4705 46.0558 10.9452C45.254 11.4096 44.3965 11.7256 43.4823 11.8912C43.0792 11.9642 42.6729 12.012 42.262 12.0135C42.2043 12.0135 42.1469 12.0215 42.0892 12.0263C42.0276 12.0314 41.9999 12.0043 42.0035 11.9433C42.0056 11.9101 42.0035 11.8766 42.0035 11.8434C42.0035 10.9385 42.0043 10.0337 42.003 9.12908C42.0027 8.85598 41.9365 8.60179 41.7691 8.37877C41.5388 8.07196 41.226 7.91791 40.8443 7.89288C40.777 7.88853 40.7092 7.89185 40.6417 7.89185C35.9585 7.89237 31.2754 7.89262 26.5922 7.89288C26.5296 7.89288 26.467 7.8893 26.4046 7.88751C26.4142 7.82083 26.4706 7.8285 26.5151 7.82262C26.5726 7.81547 26.6308 7.8193 26.6885 7.8193C28.1018 7.8193 29.5151 7.8193 30.9284 7.8193C30.962 7.8193 30.9959 7.8193 31.0296 7.8193C31.2689 7.81905 31.2772 7.80755 31.1553 7.59679C30.9395 7.22381 30.7654 6.83116 30.5982 6.4357C30.1211 5.30756 29.8362 4.1291 29.6626 2.92202C29.5547 2.17248 29.4753 1.42039 29.4232 0.664978C29.4121 0.504034 29.4095 0.341558 29.3829 0.181636C29.3741 0.129266 29.3736 0.0766398 29.4157 0.0342324L29.4134 0.0240138C29.4758 0.0255466 29.5384 0.0286122 29.6007 0.0286122C31.1263 0.0288677 32.6517 0.0286122 34.1773 0.0291231C34.2397 0.0291231 34.3023 0.0319332 34.3646 0.033466L34.3654 0.0329551Z" fill="#FAB758"/>
<path d="M7.35012 14.5289C7.31803 14.4264 7.33252 14.3212 7.33252 14.2174C7.33175 12.328 7.33201 10.4386 7.3333 8.54891C7.3333 8.19688 7.33019 7.84485 7.34727 7.49282C7.3954 6.49778 7.6275 5.5477 8.04254 4.64003C8.33571 3.99855 8.71245 3.40894 9.16578 2.86658C9.20227 2.8229 9.24367 2.78279 9.28274 2.74115C9.38443 2.64765 9.51768 2.66017 9.63826 2.65199C10.3698 2.60115 11.1038 2.59349 11.8348 2.62466C13.1433 2.6806 14.434 2.86735 15.6936 3.23701C16.843 3.57422 17.9313 4.04096 18.9241 4.70977C20.0608 5.4754 20.9874 6.43672 21.6653 7.62387C21.7888 7.83999 21.8462 7.87806 21.5204 7.87729C19.852 7.87321 18.1836 7.87525 16.5151 7.87602C16.4631 7.87602 16.409 7.86324 16.3588 7.88802C16.2408 7.91076 16.1213 7.92481 16.0072 7.96671C15.5394 8.13966 15.2294 8.56961 15.2283 9.06495C15.226 10.117 15.2283 11.169 15.2283 12.2207C15.2283 15.4526 15.2283 18.6848 15.2281 21.9167C15.2281 22.117 15.2586 22.1034 15.0444 22.0978C14.9297 22.0947 14.8131 22.1101 14.7008 22.0728C14.7246 22.0393 14.7613 22.0337 14.798 22.0276C14.8798 22.0194 14.9618 22.026 15.0439 22.0224C15.114 22.0194 15.1497 21.9862 15.1528 21.9167C15.1551 21.8692 15.1551 21.8214 15.1551 21.7739C15.1551 18.6391 15.1538 15.5042 15.159 12.3692C15.1593 12.1878 15.1005 12.0833 14.9385 11.9992C14.08 11.5537 13.1816 11.2142 12.2439 10.9718C11.2842 10.7237 10.3092 10.5735 9.32026 10.5009C8.74738 10.4588 8.1745 10.4445 7.60033 10.4496C7.4073 10.4514 7.39954 10.458 7.39928 10.654C7.39876 11.8641 7.39954 13.0742 7.39799 14.2844C7.39799 14.3674 7.42076 14.4578 7.35038 14.5286L7.35012 14.5289Z" fill="#F1883B"/>
<path d="M16.3583 7.88777C16.4075 7.84153 16.4685 7.86222 16.5242 7.86222C18.2027 7.86094 19.8815 7.86145 21.56 7.86069C21.6156 7.86069 21.6739 7.87244 21.7375 7.84255C21.6125 7.60062 21.4741 7.37505 21.3264 7.15458C21.0097 6.68222 20.6471 6.24921 20.243 5.84506C19.7705 5.37245 19.2501 4.96243 18.6873 4.60426C18.2627 4.33398 17.8182 4.09844 17.3571 3.89049C16.8569 3.66491 16.3431 3.47842 15.8196 3.31646C15.3158 3.16062 14.8022 3.0426 14.2839 2.94246C13.9408 2.87604 13.5948 2.82826 13.2494 2.78024C13.1226 2.76261 12.9914 2.75469 12.8639 2.73911C12.7071 2.71995 12.5472 2.73246 12.3927 2.6921C12.3743 2.68725 12.3544 2.68674 12.3352 2.68699C11.9937 2.68776 11.6537 2.64561 11.3114 2.65582C10.9789 2.66553 10.6456 2.6502 10.3131 2.66017C9.99689 2.66962 9.68122 2.69721 9.36554 2.71816C9.33734 2.71995 9.30991 2.73272 9.28222 2.74038C9.48767 2.48109 9.72779 2.25372 9.97464 2.03479C10.8174 1.28755 11.7776 0.739829 12.8566 0.396994C13.4313 0.214336 14.0187 0.0947779 14.6216 0.0516041C14.7271 0.0439401 14.8325 0.033977 14.938 0.0252911C15.0534 0.026313 15.1691 0.0281013 15.2845 0.0281013C18.3929 0.0281013 21.5015 0.0281013 24.6099 0.0283567C24.6581 0.0283567 24.7062 0.0309114 24.7543 0.0324442C24.84 0.063611 24.8726 0.13974 24.9093 0.212037C25.336 1.05099 25.6315 1.9349 25.8362 2.84998C26.0424 3.77195 26.1609 4.70645 26.2496 5.64554C26.3141 6.32738 26.3521 7.01126 26.4127 7.69336C26.4264 7.84919 26.4005 7.87448 26.2403 7.87448C24.8032 7.87448 23.3664 7.87448 21.9293 7.87525C21.877 7.87525 21.8232 7.86324 21.7725 7.887C21.7292 7.88879 21.686 7.89237 21.6428 7.89237C19.9198 7.89262 18.1965 7.89262 16.4735 7.89237C16.4352 7.89237 16.3966 7.88904 16.3583 7.88726V7.88777Z" fill="#F49A44"/>
<path d="M7.35012 14.5289C7.35167 14.4719 7.35452 14.4147 7.35452 14.3577C7.35452 13.1 7.35452 11.8424 7.35452 10.5847C7.35452 10.3947 7.34158 10.4054 7.53357 10.4054C7.83761 10.4054 8.14138 10.4039 8.44542 10.4059C8.6858 10.4077 8.92566 10.4266 9.16501 10.4404C9.47499 10.4583 9.78679 10.481 10.0947 10.5229C10.526 10.5817 10.9582 10.6384 11.3848 10.7265C12.0245 10.8588 12.6566 11.0198 13.2735 11.2344C13.6091 11.3511 13.9385 11.4832 14.2635 11.6275C14.545 11.7527 14.819 11.8899 15.0902 12.0347C15.1683 12.0764 15.203 12.1221 15.2009 12.2113C15.1952 12.4302 15.1991 12.6494 15.1991 12.8686C15.1991 15.8649 15.1991 18.8613 15.1989 21.8577C15.1989 22.0935 15.2252 22.0664 14.9789 22.0677C14.9163 22.0679 14.8534 22.0654 14.7908 22.0641C14.671 22.0171 14.6141 21.9042 14.5362 21.8165C13.8852 21.0839 13.1343 20.4725 12.2861 19.9744C11.1941 19.3332 10.0184 18.9058 8.78516 18.6219C8.7523 18.6143 8.71892 18.6097 8.68476 18.6107C8.46405 18.3149 8.28861 17.9925 8.12612 17.6634C7.77085 16.944 7.53771 16.1863 7.41946 15.3954C7.37651 15.1085 7.34003 14.8201 7.3496 14.5286L7.35012 14.5289Z" fill="#EF7B35"/>
<path d="M9.06202 34.1315C10.5284 34.132 11.9947 34.1325 13.4611 34.1333C13.5286 34.1333 13.5961 34.1354 13.6637 34.1364C13.7162 34.1788 13.7291 34.2398 13.741 34.3009C13.8735 34.9787 13.9589 35.6628 14.0301 36.3492C14.0823 36.855 14.1271 37.3619 14.1638 37.869C14.1967 38.324 14.229 38.779 14.2606 39.234C14.2999 39.7983 14.3548 40.3611 14.4166 40.9236C14.4492 41.2215 14.4868 41.5186 14.5333 41.8147C14.5416 41.8673 14.5442 41.9194 14.5038 41.9628L14.5059 41.9669C13.6256 41.9662 12.7454 41.9654 11.8651 41.9646C11.4513 41.9641 11.0379 41.9631 10.6241 41.9623C10.5693 41.6157 10.4782 41.2772 10.3801 40.9407C10.2163 40.38 10.0233 39.8302 9.77204 39.2999C9.57565 38.8852 9.33915 38.4964 9.08842 38.1135C8.92644 37.8659 8.73884 37.6393 8.55125 37.4115C8.3414 37.1565 8.11732 36.9148 7.87357 36.6928C7.65881 36.4971 7.43835 36.3073 7.20703 36.129C6.84633 35.8508 6.46415 35.6045 6.07059 35.3774C5.71894 35.1743 5.35203 34.9976 4.97581 34.8392C4.68368 34.7163 4.38818 34.6026 4.08984 34.4968C3.82384 34.4026 3.55086 34.3267 3.27943 34.248C2.83308 34.1188 2.37664 34.0286 1.92046 33.9433C1.65783 33.8942 1.3939 33.8375 1.12324 33.8439C1.30023 33.5146 1.52146 33.2144 1.759 32.9268C2.93322 31.5036 4.4257 30.5816 6.23929 30.1723C6.76715 30.0533 7.30328 29.9932 7.84511 29.9876C8.01123 29.9858 7.99803 29.9733 7.99829 30.1432C7.99829 31.0578 7.99855 31.9721 7.99829 32.8866C7.99829 33.2818 8.14371 33.6099 8.45628 33.8612C8.61697 33.9908 8.80638 34.0585 9.00484 34.1065C9.01338 34.1136 9.02321 34.1175 9.03434 34.1188C9.04572 34.1193 9.05529 34.1236 9.06254 34.1323L9.06202 34.1315Z" fill="#EC6427"/>
<path d="M42.6494 34.397C42.6481 33.9634 42.6463 33.5302 42.6455 33.0966C42.6447 32.6823 42.6455 32.2679 42.6452 31.8533C42.6452 31.7028 42.6437 31.6934 42.4964 31.7033C41.9914 31.7381 41.4858 31.7284 40.9804 31.7302C40.7923 31.7307 40.6026 31.7445 40.4163 31.7268C40.1488 31.7015 39.8799 31.7118 39.6121 31.6791C39.4514 31.6594 39.2864 31.6668 39.1244 31.6448C38.9681 31.6236 38.8103 31.6147 38.6535 31.5955C38.4824 31.5746 38.3114 31.5541 38.1401 31.5352C37.9209 31.5112 37.7033 31.4765 37.4865 31.4404C37.0898 31.3748 36.6942 31.3015 36.3024 31.21C35.8211 31.0979 35.3427 30.9755 34.8723 30.8243C34.8501 30.8171 34.825 30.8184 34.8009 30.8158C34.7732 30.7716 34.7869 30.7228 34.7869 30.6764C34.7861 27.7617 34.7861 24.8471 34.7864 21.9323C34.7864 21.7491 34.8027 21.7356 34.9714 21.8204C35.6594 22.167 36.3614 22.4823 37.0877 22.7431C38.3709 23.2042 39.6898 23.5208 41.0407 23.7126C41.2203 23.7382 41.4066 23.7348 41.5768 23.811C41.7774 24.1099 41.9251 24.4353 42.0648 24.7641C42.3458 25.4265 42.5221 26.1168 42.6108 26.8288C42.6486 27.1312 42.6667 27.436 42.667 27.7405C42.6695 29.8744 42.669 32.0084 42.6683 34.1423C42.6683 34.2271 42.6835 34.3137 42.6496 34.3965L42.6494 34.397Z" fill="#F49A44"/>
<path d="M21.7725 7.88726C21.8219 7.84153 21.8829 7.86222 21.9383 7.86222C23.3325 7.86094 24.7266 7.8612 26.1205 7.8612C26.1446 7.8612 26.1687 7.8612 26.193 7.8612C26.3855 7.8612 26.4057 7.8354 26.3645 7.64329C26.3586 7.61544 26.3456 7.58734 26.348 7.56C26.3645 7.35486 26.3288 7.15151 26.3099 6.9497C26.2923 6.76167 26.3066 6.57135 26.2647 6.38384C26.239 6.26965 26.2458 6.14804 26.2383 6.03053C26.2282 5.86984 26.2103 5.70941 26.1974 5.54898C26.1803 5.33285 26.1635 5.11571 26.1244 4.90137C26.105 4.79459 26.1014 4.68525 26.0887 4.57718C26.0548 4.28595 26.0075 3.99676 25.9611 3.70732C25.8786 3.19281 25.7624 2.68495 25.6224 2.18296C25.4962 1.7295 25.3487 1.28321 25.1569 0.851723C25.0563 0.625381 24.9582 0.398016 24.8431 0.178571C24.8167 0.128244 24.7838 0.0809827 24.7541 0.0324442C24.7926 0.0311668 24.8309 0.0286122 24.8695 0.0286122C26.3418 0.0286122 27.8141 0.0286122 29.2866 0.0286122C29.3298 0.0286122 29.373 0.0316778 29.4163 0.0332106C29.4395 0.220723 29.4323 0.410789 29.467 0.597279C29.4721 0.625125 29.4727 0.653993 29.4727 0.682605C29.4721 0.900773 29.5055 1.11613 29.5244 1.33251C29.5363 1.46893 29.5451 1.60637 29.5617 1.74228C29.5878 1.95789 29.6051 2.17427 29.6349 2.38963C29.6574 2.55338 29.6771 2.71739 29.7035 2.88063C29.7381 3.09497 29.7596 3.31186 29.8005 3.52492C29.8864 3.97071 29.9858 4.41369 30.1019 4.85334C30.2419 5.38216 30.4225 5.89667 30.6308 6.40198C30.7688 6.73638 30.9214 7.06414 31.0865 7.38629C31.1473 7.50482 31.2146 7.62004 31.2769 7.73781C31.294 7.77 31.3227 7.8004 31.3072 7.84689C31.2544 7.87269 31.196 7.85992 31.1401 7.85992C29.6168 7.86069 28.0938 7.86043 26.5705 7.86145C26.5151 7.86145 26.4541 7.84102 26.4046 7.88623C26.3614 7.88802 26.3182 7.8916 26.275 7.8916C24.8123 7.89185 23.3498 7.89185 21.8871 7.8916C21.8488 7.8916 21.8102 7.88828 21.7719 7.88623L21.7725 7.88726Z" fill="#F6A64E"/>
<path d="M41.5766 23.8115C41.3729 23.826 41.1763 23.7716 40.9768 23.7481C40.6968 23.7149 40.4189 23.6623 40.1415 23.6112C39.5803 23.5075 39.0258 23.3759 38.4749 23.2267C38.0806 23.1199 37.6904 23.0011 37.3046 22.868C36.9097 22.7316 36.5219 22.5773 36.1371 22.4151C35.7246 22.2411 35.3249 22.0421 34.9243 21.8441C34.8909 21.8275 34.8599 21.8007 34.8006 21.8084C34.8006 24.8098 34.8006 27.8131 34.8006 30.8161C34.8006 31.5043 34.8006 32.1928 34.7991 32.881C34.7991 32.9357 34.8193 32.9957 34.7742 33.0445C34.7729 32.9635 34.7706 32.8828 34.7706 32.8018C34.7706 29.2059 34.7711 25.61 34.7714 22.014C34.7714 21.3616 34.7722 20.7091 34.7727 20.0564C34.7727 19.8957 34.7729 19.8965 34.9292 19.9028C35.7624 19.9366 36.5757 20.0753 37.3628 20.353C38.3463 20.6999 39.2279 21.2157 40.0078 21.9026C40.6138 22.4363 41.1225 23.0481 41.5404 23.7346C41.5551 23.7586 41.5644 23.7857 41.5761 23.8115H41.5766Z" fill="#F6A64E"/>
<path d="M8.68502 18.611C8.69304 18.5407 8.7435 18.5765 8.77196 18.5828C8.94481 18.6219 9.11688 18.6633 9.28843 18.708C9.85536 18.8559 10.4081 19.0447 10.9483 19.269C11.5121 19.5028 12.0511 19.7818 12.5679 20.1057C12.905 20.317 13.2184 20.5563 13.5307 20.8005C13.8567 21.0555 14.1398 21.3521 14.4306 21.6418C14.5615 21.7721 14.6718 21.9231 14.7913 22.0646C14.761 22.0674 14.7308 22.0702 14.7002 22.073C14.2065 22.0549 13.7234 21.9673 13.2484 21.8395C11.3911 21.3398 9.90711 20.3088 8.78464 18.7673C8.74841 18.7175 8.7065 18.6705 8.68476 18.6112L8.68502 18.611Z" fill="#EE712E"/>
<path d="M9.03304 34.1318C9.02347 34.1231 9.0139 34.1144 9.00432 34.1057C9.0139 34.106 9.02321 34.1065 9.03278 34.1067C9.04029 34.1121 9.04288 34.1177 9.04029 34.1234C9.03796 34.129 9.03537 34.1318 9.03278 34.1318H9.03304Z" fill="#EE712E"/>
<path d="M9.03304 34.1318C9.03304 34.1234 9.03304 34.1152 9.03304 34.1067C9.04262 34.1067 9.05219 34.1073 9.06202 34.1075C9.06202 34.1157 9.06228 34.1236 9.06228 34.1315C9.05271 34.1315 9.04287 34.1315 9.0333 34.1315L9.03304 34.1318Z" fill="#EF7B35"/>
<path d="M40.5602 39.4411C40.5643 39.4319 40.5708 39.4255 40.5799 39.4212C40.5793 39.4337 40.5724 39.4399 40.5602 39.4411Z" fill="#F1883B"/>
<path d="M49.9674 0.456773C49.881 0.407213 49.7808 0.421774 49.6879 0.40568C49.3736 0.350755 49.0594 0.295063 48.7476 0.227365C48.4964 0.172695 48.2459 0.113938 47.9954 0.0562025C47.9779 0.0521151 47.9621 0.0406191 47.9452 0.0324442C48.5836 0.0311668 49.2219 0.0296341 49.86 0.0293786C49.9671 0.0293786 49.9687 0.0324442 49.97 0.144083C49.971 0.248313 49.9682 0.352543 49.9671 0.456773H49.9674Z" fill="#FFD868"/>
<path d="M14.5041 41.9626C14.5201 41.8755 14.4844 41.7935 14.4725 41.7099C14.4262 41.3875 14.3877 41.0644 14.3566 40.7399C14.3287 40.4487 14.2953 40.158 14.2702 39.8662C14.2482 39.6118 14.2334 39.3571 14.213 39.1029C14.1913 38.8341 14.1711 38.5659 14.1538 38.2969C14.1372 38.0376 14.1139 37.7788 14.0963 37.5193C14.0741 37.1943 14.0425 36.8696 14.0089 36.5457C13.9706 36.1753 13.9271 35.8051 13.8766 35.4357C13.8301 35.0941 13.7747 34.7544 13.7216 34.4138C13.7071 34.3206 13.6836 34.2289 13.6642 34.1364C13.9092 34.1354 14.1545 34.1333 14.3996 34.1333C15.4475 34.1338 16.4957 34.1348 17.5437 34.1359C17.5732 34.3032 17.6019 34.4708 17.6324 34.6379C17.7698 35.3846 17.9507 36.1206 18.2131 36.8346C18.3424 37.1869 18.485 37.5338 18.6418 37.8759C18.9743 38.6007 19.3712 39.2881 19.8233 39.9454C20.0603 40.2903 20.3092 40.627 20.5809 40.9468C20.7783 41.1793 20.9768 41.4103 21.1848 41.6338C21.285 41.7413 21.3921 41.8446 21.4816 41.9623C21.0956 41.9628 20.7095 41.9641 20.3237 41.9641C18.4418 41.9641 16.5599 41.9641 14.6782 41.9641C14.6203 41.9641 14.5626 41.9631 14.5046 41.9623L14.5041 41.9626Z" fill="#EE712E"/>
</svg>
